<svg xmlns="http://www.w3.org/2000/svg" viewBox="0 0 109.72 128"><defs><style>.cls-1{fill:#f6f6f6;}.cls-2{fill:#b43331;}.cls-3{fill:#ffffff;}.cls-4{fill:#bbbbbb;}</style></defs><g id="layer_2" data-name="layer 2"><g id="_4" data-name="4"><polygon class="cls-1" points="93.98 13.72 80.26 0 2.81 0 2.81 104.89 2.81 128 109.72 128 109.72 29.46 93.98 13.72"/><rect class="cls-2" y="8.57" width="51.27" height="22.94"/><path class="cls-3" d="M18.39,16.09a4.23,4.23,0,0,0-2.45-2.43,5.44,5.44,0,0,0-2-.35H8.27V27.85h2.85V22.37h2.79a5.25,5.25,0,0,0,2-.36,4.2,4.2,0,0,0,1.51-1,4.08,4.08,0,0,0,.94-1.45,4.83,4.83,0,0,0,.32-1.73A4.91,4.91,0,0,0,18.39,16.09Zm-3.07,3.19a2.17,2.17,0,0,1-1.55.55H11.12v-4h2.65a2.1,2.1,0,0,1,1.55.57,2.16,2.16,0,0,1,0,2.88Z"/><path class="cls-3" d="M32,18.94a13.73,13.73,0,0,0-.1-1.38,5.23,5.23,0,0,0-.28-1.15,4,4,0,0,0-.53-1,4.76,4.76,0,0,0-1.82-1.63,6.1,6.1,0,0,0-2.57-.5H21.46V27.85H26.7a6.1,6.1,0,0,0,2.57-.5,4.76,4.76,0,0,0,1.82-1.63,3.89,3.89,0,0,0,.53-1,5,5,0,0,0,.28-1.14,13.73,13.73,0,0,0,.1-1.38c0-.49,0-1,0-1.64S32,19.43,32,18.94Zm-2.85,3.11a7.87,7.87,0,0,1-.07,1.07,3.7,3.7,0,0,1-.17.74,2.2,2.2,0,0,1-.32.56,2.52,2.52,0,0,1-2.13.89H24.29V15.83h2.17a2.53,2.53,0,0,1,2.13.91,1.93,1.93,0,0,1,.32.54,3.94,3.94,0,0,1,.17.76,7.55,7.55,0,0,1,.07,1.05c0,.42,0,.92,0,1.49S29.17,21.64,29.15,22.05Z"/><path class="cls-3" d="M44.15,15.83V13.31H34.56V27.85h2.85V22h5.75V19.41H37.41V15.83Z"/><path class="cls-3" d="M18.39,16.09a4.23,4.23,0,0,0-2.45-2.43,5.44,5.44,0,0,0-2-.35H8.27V27.85h2.85V22.37h2.79a5.25,5.25,0,0,0,2-.36,4.2,4.2,0,0,0,1.51-1,4.08,4.08,0,0,0,.94-1.45,4.83,4.83,0,0,0,.32-1.73A4.91,4.91,0,0,0,18.39,16.09Zm-3.07,3.19a2.17,2.17,0,0,1-1.55.55H11.12v-4h2.65a2.1,2.1,0,0,1,1.55.57,2.16,2.16,0,0,1,0,2.88Z"/><polygon class="cls-4" points="109.72 29.46 80.26 29.46 80.26 0 109.72 29.46"/><path class="cls-2" d="M94.45,92.66a12.37,12.37,0,0,0-2.52-3.07,18.56,18.56,0,0,0-3-2.2c-4.63-2.73-11.25-4-20.24-4h-.9c-.49-.46-1-.91-1.53-1.38A40.41,40.41,0,0,1,58,71.84c4.14-9.14,6.12-17.28,5.88-24.22a13.16,13.16,0,0,0-.51-3.28,10.57,10.57,0,0,0-2.26-4.27l0,0a8.62,8.62,0,0,0-6.39-3A8,8,0,0,0,48.47,40,11.71,11.71,0,0,0,46,47.51a64.16,64.16,0,0,0,1.11,13.08c.08.32.13.64.21,1A48.87,48.87,0,0,0,50.79,72C49,75.55,47.23,78.66,46,80.77c-.94,1.6-2,3.28-3,5A74.17,74.17,0,0,0,30.4,89a32.07,32.07,0,0,0-11.52,6.71,13.28,13.28,0,0,0-3.64,5.5,8.28,8.28,0,0,0,.12,5.73A8.3,8.3,0,0,0,20,111.45a10.39,10.39,0,0,0,3.91.76,14.11,14.11,0,0,0,9.23-3.85c5.16-4.61,10.5-12,13.64-16.73,2.59-.4,5.39-.74,8.56-1.08,3.73-.37,7-.6,10-.71L68,92.21a106.74,106.74,0,0,0,11.54,9.37s0,0,0,0a28.68,28.68,0,0,0,3.74,2.11,9.85,9.85,0,0,0,4.2,1,8.48,8.48,0,0,0,4.92-1.55,7.78,7.78,0,0,0,2.94-4.2A8.43,8.43,0,0,0,94.45,92.66ZM52.79,54.92a56.15,56.15,0,0,1-.34-7.33c0-2.44.92-4.07,2.22-4.07,1,0,2,.88,2.49,2.58a8,8,0,0,1,.24,1.75c0,.79,0,1.62,0,2.47A36.76,36.76,0,0,1,56.14,58a51.41,51.41,0,0,1-1.7,5.48A46.09,46.09,0,0,1,52.79,54.92Zm-31.44,49.6c-.32-.79,0-2.32,2-4.2,3-2.87,7.69-5.13,14.23-6.85Q35.71,96,33.92,98.13a50.34,50.34,0,0,1-5.11,5.43,8.12,8.12,0,0,1-4.2,2.15,6,6,0,0,1-.73.05A2.61,2.61,0,0,1,21.35,104.52Zm30.12-20,.13-.21-.21,0a1.17,1.17,0,0,1,.15-.27c.79-1.34,1.79-3,2.87-5l.09.21.25-.51C55.54,79.85,56.4,81,57.31,82c.43.5.88,1,1.34,1.48l-.31,0,.27.25c-.77,0-1.58.13-2.39.21l-1.57.15C53.56,84.26,52.48,84.37,51.47,84.49ZM83.18,96.25a70.16,70.16,0,0,1-7.84-6.15A25.77,25.77,0,0,1,85.63,93a9.48,9.48,0,0,1,2.43,1.88c.91,1,1.23,1.83,1.06,2.41a1.56,1.56,0,0,1-1.62,1A3.43,3.43,0,0,1,86,97.87a25.35,25.35,0,0,1-2.73-1.55S83.22,96.28,83.18,96.25Z"/></g></g></svg>